<svg xmlns="http://www.w3.org/2000/svg" xmlns:xlink="http://www.w3.org/1999/xlink" width="512" zoomAndPan="magnify" viewBox="0 0 384 383.999986" height="512" preserveAspectRatio="xMidYMid meet" version="1.0"><defs><filter x="0%" y="0%" width="100%" height="100%" id="d25545cd15"><feColorMatrix values="0 0 0 0 1 0 0 0 0 1 0 0 0 0 1 0 0 0 1 0" color-interpolation-filters="sRGB"/></filter><clipPath id="af91e1ec16"><path d="M 2.199219 24 L 381.699219 24 L 381.699219 360 L 2.199219 360 Z M 2.199219 24 " clip-rule="nonzero"/></clipPath><mask id="238dbe3bdd"><g filter="url(#d25545cd15)"><rect x="-38.4" width="460.8" fill="#000000" y="-38.399999" height="460.799983" fill-opacity="0.99"/></g></mask><clipPath id="515f3e71f4"><path d="M 0.199219 0.238281 L 379.699219 0.238281 L 379.699219 335 L 0.199219 335 Z M 0.199219 0.238281 " clip-rule="nonzero"/></clipPath><clipPath id="9bc5357a19"><rect x="0" width="380" y="0" height="336"/></clipPath><mask id="25f3012383"><g filter="url(#d25545cd15)"><rect x="-38.4" width="460.8" fill="#000000" y="-38.399999" height="460.799983" fill-opacity="0.993"/></g></mask><clipPath id="815ad55aad"><path d="M 1 0 L 112.679688 0 L 112.679688 90 L 1 90 Z M 1 0 " clip-rule="nonzero"/></clipPath><clipPath id="615c2214bd"><rect x="0" width="113" y="0" height="91"/></clipPath></defs><g clip-path="url(#af91e1ec16)"><g mask="url(#238dbe3bdd)"><g transform="matrix(1, 0, 0, 1, 2, 24)"><g clip-path="url(#9bc5357a19)"><g clip-path="url(#515f3e71f4)"><path fill="#dbdbdc" d="M 379.421875 7.484375 C 379.421875 58.886719 379.421875 110.289062 379.421875 161.691406 C 371.78125 225.804688 340.644531 274.859375 286.003906 308.859375 C 234.03125 337.785156 179.910156 342.480469 123.640625 322.945312 C 59.96875 296.09375 20.058594 249.011719 3.90625 181.710938 C 2.289062 173.242188 0.929688 164.839844 -0.171875 156.503906 C -0.171875 106.828125 -0.171875 57.15625 -0.171875 7.484375 C 3.789062 0.84375 9.472656 -1.007812 16.878906 1.921875 C 18.734375 2.789062 20.09375 4.148438 20.957031 6 C 21.863281 53.738281 38.667969 94.761719 71.371094 129.070312 C 80.523438 107.375 96.710938 94.398438 119.933594 90.148438 C 166.394531 89.652344 212.855469 89.652344 259.316406 90.148438 C 282.539062 94.398438 298.722656 107.375 307.875 129.070312 C 340.578125 94.761719 357.382812 53.738281 358.292969 6 C 360.527344 2.222656 363.863281 0.496094 368.300781 0.808594 C 373.335938 0.917969 377.042969 3.140625 379.421875 7.484375 Z M 145.140625 134.261719 C 174.796875 134.136719 204.453125 134.261719 234.109375 134.632812 C 254 136.730469 265 147.730469 267.101562 167.625 C 267.59375 189.867188 267.59375 212.109375 267.101562 234.347656 C 265.941406 251.320312 257.167969 262.074219 240.78125 266.601562 C 223.132812 268.773438 210.527344 261.855469 202.96875 245.839844 C 194.074219 245.347656 185.175781 245.347656 176.277344 245.839844 C 165.15625 266.683594 148.84375 272.121094 127.347656 262.152344 C 117.734375 255.410156 112.667969 246.144531 112.148438 234.347656 C 111.457031 209.863281 111.703125 185.398438 112.890625 160.953125 C 117.574219 144.601562 128.324219 135.703125 145.140625 134.261719 Z M 145.140625 134.261719 " fill-opacity="1" fill-rule="evenodd"/></g></g></g></g></g><g mask="url(#25f3012383)"><g transform="matrix(1, 0, 0, 1, 135, 180)"><g clip-path="url(#615c2214bd)"><g clip-path="url(#815ad55aad)"><path fill="#dbdbdc" d="M 7.691406 0.503906 C 40.3125 0.378906 72.933594 0.503906 105.554688 0.875 C 108.644531 1.984375 110.746094 4.085938 111.859375 7.175781 C 112.351562 32.382812 112.351562 57.589844 111.859375 82.796875 C 108.632812 89.035156 103.566406 91.136719 96.660156 89.097656 C 93.570312 87.988281 91.46875 85.886719 90.355469 82.796875 C 90.3125 77.835938 88.707031 73.511719 85.539062 69.824219 C 84.550781 69.328125 83.5625 68.835938 82.574219 68.339844 C 73.957031 67.515625 65.308594 67.144531 56.625 67.226562 C 47.941406 67.144531 39.289062 67.515625 30.675781 68.339844 C 25.109375 71.433594 22.515625 76.253906 22.890625 82.796875 C 19.667969 89.035156 14.601562 91.136719 7.691406 89.097656 C 4.601562 87.988281 2.503906 85.886719 1.390625 82.796875 C 0.894531 57.589844 0.894531 32.382812 1.390625 7.175781 C 2.640625 4.074219 4.742188 1.847656 7.691406 0.503906 Z M 7.691406 0.503906 " fill-opacity="1" fill-rule="evenodd"/></g></g></g></g></svg>