<svg xmlns="http://www.w3.org/2000/svg" xmlns:xlink="http://www.w3.org/1999/xlink" width="512" zoomAndPan="magnify" viewBox="0 0 384 383.999986" height="512" preserveAspectRatio="xMidYMid meet" version="1.0"><defs><clipPath id="4b556158e1"><path d="M 2.199219 24 L 381.699219 24 L 381.699219 359 L 2.199219 359 Z M 2.199219 24 " clip-rule="nonzero"/></clipPath></defs><g clip-path="url(#4b556158e1)"><path fill="#000000" d="M 381.328125 31.476562 C 381.328125 82.867188 381.328125 134.257812 381.328125 185.648438 C 373.691406 249.742188 342.558594 298.785156 287.933594 332.777344 C 235.972656 361.695312 181.863281 366.390625 125.609375 346.859375 C 61.957031 320.011719 22.054688 272.945312 5.902344 205.660156 C 4.289062 197.191406 2.929688 188.792969 1.828125 180.460938 C 1.828125 130.796875 1.828125 81.136719 1.828125 31.476562 C 5.785156 24.839844 11.46875 22.984375 18.875 25.917969 C 20.726562 26.78125 22.085938 28.140625 22.953125 29.992188 C 23.859375 77.71875 40.660156 118.734375 73.355469 153.035156 C 82.503906 131.34375 98.6875 118.371094 121.902344 114.121094 C 168.351562 113.625 214.800781 113.625 261.25 114.121094 C 284.46875 118.371094 300.652344 131.34375 309.800781 153.035156 C 342.496094 118.734375 359.296875 77.71875 360.203125 29.992188 C 362.4375 26.21875 365.773438 24.488281 370.207031 24.804688 C 375.242188 24.910156 378.949219 27.132812 381.328125 31.476562 Z M 147.105469 158.222656 C 176.753906 158.097656 206.402344 158.222656 236.050781 158.59375 C 255.9375 160.691406 266.933594 171.6875 269.035156 191.578125 C 269.527344 213.8125 269.527344 236.050781 269.035156 258.285156 C 267.875 275.253906 259.105469 286.003906 242.722656 290.527344 C 225.078125 292.703125 212.476562 285.785156 204.917969 269.773438 C 196.023438 269.28125 187.128906 269.28125 178.234375 269.773438 C 167.113281 290.613281 150.808594 296.046875 129.316406 286.082031 C 119.707031 279.339844 114.640625 270.078125 114.121094 258.285156 C 113.429688 233.808594 113.675781 209.347656 114.863281 184.90625 C 119.542969 168.558594 130.292969 159.664062 147.105469 158.222656 Z M 147.105469 158.222656 " fill-opacity="0.99" fill-rule="evenodd"/></g><path fill="#000000" d="M 142.65625 180.460938 C 175.269531 180.335938 207.882812 180.460938 240.496094 180.828125 C 243.585938 181.941406 245.6875 184.042969 246.796875 187.128906 C 247.292969 212.332031 247.292969 237.53125 246.796875 262.734375 C 243.574219 268.96875 238.511719 271.070312 231.601562 269.035156 C 228.515625 267.921875 226.414062 265.820312 225.300781 262.734375 C 225.257812 257.773438 223.652344 253.449219 220.484375 249.761719 C 219.496094 249.269531 218.507812 248.773438 217.519531 248.28125 C 208.90625 247.457031 200.257812 247.085938 191.578125 247.167969 C 182.894531 247.085938 174.25 247.457031 165.636719 248.28125 C 160.070312 251.371094 157.476562 256.1875 157.851562 262.734375 C 154.628906 268.96875 149.566406 271.070312 142.65625 269.035156 C 139.570312 267.921875 137.46875 265.820312 136.355469 262.734375 C 135.863281 237.53125 135.863281 212.332031 136.355469 187.128906 C 137.609375 184.027344 139.707031 181.804688 142.65625 180.460938 Z M 142.65625 180.460938 " fill-opacity="0.993" fill-rule="evenodd"/></svg>