<svg xmlns="http://www.w3.org/2000/svg" xmlns:xlink="http://www.w3.org/1999/xlink" width="512" zoomAndPan="magnify" viewBox="0 0 384 383.999986" height="512" preserveAspectRatio="xMidYMid meet" version="1.0"><defs><clipPath id="37ee7e8e98"><path d="M 1.890625 45 L 367 45 L 367 139 L 1.890625 139 Z M 1.890625 45 " clip-rule="nonzero"/></clipPath></defs><g clip-path="url(#37ee7e8e98)"><path fill="#000000" d="M 1.519531 106.980469 C 1.519531 102.773438 1.519531 98.5625 1.519531 94.355469 C 3.628906 84.589844 8.828125 76.792969 17.117188 70.960938 C 83.589844 44.925781 151.917969 38.488281 222.097656 51.652344 C 267.484375 60.070312 307.589844 79.132812 342.410156 108.835938 C 351.457031 117.382812 359.378906 126.789062 366.175781 137.058594 C 366.050781 137.429688 365.925781 137.800781 365.804688 138.171875 C 333.117188 121.058594 298.335938 111.03125 261.457031 108.09375 C 187.382812 102.5 115.09375 111.414062 44.597656 134.832031 C 22.246094 137.65625 7.890625 128.375 1.519531 106.980469 Z M 1.519531 106.980469 " fill-opacity="0.982" fill-rule="evenodd"/></g><path fill="#000000" d="M 381.769531 228.78125 C 381.769531 229.523438 381.769531 230.265625 381.769531 231.007812 C 368.394531 252.554688 348.839844 262.828125 323.101562 261.828125 C 297.609375 289.929688 267.40625 311.464844 232.492188 326.441406 C 190.480469 343.445312 148.890625 342.457031 107.722656 323.472656 C 70.03125 305.960938 38.34375 280.832031 12.660156 248.089844 C 41.152344 212.292969 76.554688 185.683594 118.863281 168.25 C 156.042969 154.140625 193.175781 154.386719 230.265625 168.996094 C 241.480469 173.738281 252.375 179.058594 262.941406 184.960938 C 277.210938 180.71875 285.132812 171.191406 286.707031 156.367188 C 295.863281 155.996094 305.023438 155.875 314.1875 155.996094 C 313.472656 175.75 305.304688 191.59375 289.679688 203.527344 C 291.359375 205.34375 293.464844 206.089844 295.992188 205.757812 C 305.917969 205.25 313.839844 201.042969 319.757812 193.132812 C 321.648438 189.347656 323.507812 185.632812 325.328125 181.992188 C 333.480469 183.894531 341.648438 185.75 349.835938 187.5625 C 350.589844 187.945312 351.085938 188.566406 351.320312 189.417969 C 346.195312 207.785156 335.054688 221.03125 317.902344 229.152344 C 319.324219 231.324219 321.304688 232.5625 323.84375 232.863281 C 332.324219 234.585938 340.246094 233.101562 347.609375 228.410156 C 351.484375 224.902344 354.953125 221.066406 358.003906 216.898438 C 365.945312 220.867188 373.867188 224.828125 381.769531 228.78125 Z M 137.429688 191.644531 C 111.164062 210.90625 101.878906 236.40625 109.582031 268.140625 C 114.679688 283.332031 123.714844 295.460938 136.6875 304.53125 C 123.074219 300.367188 110.203125 294.546875 98.070312 287.078125 C 80.347656 276.171875 64.257812 263.175781 49.796875 248.089844 C 70.023438 227.199219 93.296875 210.488281 119.605469 197.957031 C 125.332031 195.21875 131.273438 193.113281 137.429688 191.644531 Z M 210.214844 304.53125 C 235.527344 285.667969 244.8125 260.664062 238.0625 229.523438 C 233.25 214.074219 224.210938 201.820312 210.957031 192.761719 C 210.066406 192.273438 210.066406 191.902344 210.957031 191.644531 C 244.125 203.765625 272.839844 222.582031 297.105469 248.089844 C 277.113281 268.941406 254.09375 285.652344 228.039062 298.21875 C 222.3125 300.960938 216.371094 303.066406 210.214844 304.53125 Z M 170.109375 233.234375 C 182.453125 232.828125 188.515625 238.769531 188.304688 251.058594 C 184.3125 262.136719 176.761719 265.480469 165.652344 261.085938 C 156.085938 252.933594 155.835938 244.519531 164.910156 235.835938 C 166.710938 234.933594 168.445312 234.070312 170.109375 233.234375 Z M 170.109375 233.234375 " fill-opacity="0.976" fill-rule="evenodd"/></svg>