<svg xmlns="http://www.w3.org/2000/svg" xmlns:xlink="http://www.w3.org/1999/xlink" width="512" zoomAndPan="magnify" viewBox="0 0 384 383.999986" height="512" preserveAspectRatio="xMidYMid meet" version="1.0"><defs><filter x="0%" y="0%" width="100%" height="100%" id="9605f56a23"><feColorMatrix values="0 0 0 0 1 0 0 0 0 1 0 0 0 0 1 0 0 0 1 0" color-interpolation-filters="sRGB"/></filter><clipPath id="388e4e6c7c"><path d="M 1.890625 44 L 367 44 L 367 139 L 1.890625 139 Z M 1.890625 44 " clip-rule="nonzero"/></clipPath><mask id="5e9bd86439"><g filter="url(#9605f56a23)"><rect x="-38.4" width="460.8" fill="#000000" y="-38.399999" height="460.799983" fill-opacity="0.982"/></g></mask><clipPath id="9a8da95b37"><path d="M 0.890625 1 L 365.71875 1 L 365.71875 94.71875 L 0.890625 94.71875 Z M 0.890625 1 " clip-rule="nonzero"/></clipPath><clipPath id="fa29d02e3f"><rect x="0" width="366" y="0" height="95"/></clipPath><clipPath id="654291f2c8"><path d="M 12 155 L 382.140625 155 L 382.140625 340 L 12 340 Z M 12 155 " clip-rule="nonzero"/></clipPath><mask id="278104ad4b"><g filter="url(#9605f56a23)"><rect x="-38.4" width="460.8" fill="#000000" y="-38.399999" height="460.799983" fill-opacity="0.976"/></g></mask><clipPath id="819bd97441"><path d="M 0.238281 0.519531 L 370 0.519531 L 370 184 L 0.238281 184 Z M 0.238281 0.519531 " clip-rule="nonzero"/></clipPath><clipPath id="c65e36bdb5"><rect x="0" width="371" y="0" height="185"/></clipPath></defs><g clip-path="url(#388e4e6c7c)"><g mask="url(#5e9bd86439)"><g transform="matrix(1, 0, 0, 1, 1, 44)"><g clip-path="url(#fa29d02e3f)"><g clip-path="url(#9a8da95b37)"><path fill="#dbdbdc" d="M 0.519531 62.972656 C 0.519531 58.761719 0.519531 54.554688 0.519531 50.347656 C 2.628906 40.582031 7.828125 32.785156 16.117188 26.953125 C 82.582031 0.921875 150.902344 -5.515625 221.074219 7.648438 C 266.460938 16.066406 306.5625 35.125 341.378906 64.828125 C 350.425781 73.371094 358.347656 82.777344 365.140625 93.046875 C 365.015625 93.417969 364.894531 93.789062 364.769531 94.160156 C 332.085938 77.046875 297.308594 67.019531 260.433594 64.085938 C 186.363281 58.492188 114.082031 67.402344 43.59375 90.820312 C 21.246094 93.644531 6.886719 84.363281 0.519531 62.972656 Z M 0.519531 62.972656 " fill-opacity="1" fill-rule="evenodd"/></g></g></g></g></g><g clip-path="url(#654291f2c8)"><g mask="url(#278104ad4b)"><g transform="matrix(1, 0, 0, 1, 12, 155)"><g clip-path="url(#c65e36bdb5)"><g clip-path="url(#819bd97441)"><path fill="#dbdbdc" d="M 369.734375 73.757812 C 369.734375 74.5 369.734375 75.246094 369.734375 75.988281 C 356.363281 97.53125 336.804688 107.804688 311.070312 106.804688 C 285.582031 134.902344 255.382812 156.4375 220.472656 171.410156 C 178.460938 188.414062 136.875 187.425781 95.714844 168.441406 C 58.027344 150.929688 26.339844 125.804688 0.660156 93.066406 C 29.148438 57.273438 64.546875 30.664062 106.851562 13.238281 C 144.027344 -0.871094 181.160156 -0.625 218.246094 13.980469 C 229.460938 18.71875 240.351562 24.042969 250.917969 29.945312 C 265.183594 25.703125 273.105469 16.175781 274.683594 1.355469 C 283.839844 0.984375 292.996094 0.859375 302.160156 0.984375 C 301.445312 20.734375 293.273438 36.574219 277.652344 48.511719 C 279.332031 50.328125 281.4375 51.070312 283.964844 50.738281 C 293.890625 50.234375 301.8125 46.023438 307.726562 38.113281 C 309.621094 34.328125 311.476562 30.617188 313.296875 26.976562 C 321.449219 28.878906 329.617188 30.734375 337.804688 32.542969 C 338.558594 32.929688 339.054688 33.550781 339.289062 34.402344 C 334.164062 52.765625 323.023438 66.007812 305.871094 74.128906 C 307.296875 76.304688 309.277344 77.542969 311.8125 77.84375 C 320.292969 79.566406 328.214844 78.078125 335.574219 73.386719 C 339.453125 69.882812 342.917969 66.046875 345.972656 61.878906 C 353.914062 65.847656 361.835938 69.808594 369.734375 73.757812 Z M 125.417969 36.628906 C 99.152344 55.886719 89.871094 81.382812 97.570312 113.117188 C 102.671875 128.304688 111.707031 140.433594 124.675781 149.503906 C 111.0625 145.339844 98.191406 139.519531 86.058594 132.054688 C 68.339844 121.148438 52.25 108.152344 37.789062 93.066406 C 58.019531 72.179688 81.285156 55.472656 107.597656 42.941406 C 113.320312 40.199219 119.261719 38.097656 125.417969 36.628906 Z M 198.195312 149.503906 C 223.503906 130.644531 232.789062 105.640625 226.042969 74.5 C 221.226562 59.054688 212.191406 46.804688 198.9375 37.742188 C 198.046875 37.257812 198.046875 36.886719 198.9375 36.628906 C 232.101562 48.75 260.816406 67.5625 285.078125 93.066406 C 265.089844 113.917969 242.070312 130.628906 216.015625 143.191406 C 210.289062 145.933594 204.351562 148.039062 198.195312 149.503906 Z M 158.09375 78.214844 C 170.433594 77.808594 176.5 83.75 176.285156 96.039062 C 172.292969 107.113281 164.746094 110.453125 153.636719 106.0625 C 144.070312 97.910156 143.824219 89.496094 152.894531 80.8125 C 154.695312 79.914062 156.429688 79.046875 158.09375 78.214844 Z M 158.09375 78.214844 " fill-opacity="1" fill-rule="evenodd"/></g></g></g></g></g></svg>