<svg xmlns="http://www.w3.org/2000/svg" xmlns:xlink="http://www.w3.org/1999/xlink" width="512" zoomAndPan="magnify" viewBox="0 0 384 383.999986" height="512" preserveAspectRatio="xMidYMid meet" version="1.0"><defs><filter x="0%" y="0%" width="100%" height="100%" id="a639f82dd0"><feColorMatrix values="0 0 0 0 1 0 0 0 0 1 0 0 0 0 1 0 0 0 1 0" color-interpolation-filters="sRGB"/></filter><clipPath id="12edbc1bf4"><path d="M 2.136719 29 L 381.636719 29 L 381.636719 354 L 2.136719 354 Z M 2.136719 29 " clip-rule="nonzero"/></clipPath><mask id="ff40c28692"><g filter="url(#a639f82dd0)"><rect x="-38.4" width="460.8" fill="#000000" y="-38.399999" height="460.799983" fill-opacity="0.987"/></g></mask><clipPath id="03aba6747c"><path d="M 0.136719 1 L 379.636719 1 L 379.636719 324.761719 L 0.136719 324.761719 Z M 0.136719 1 " clip-rule="nonzero"/></clipPath><clipPath id="9c1f9275a7"><rect x="0" width="380" y="0" height="325"/></clipPath></defs><g clip-path="url(#12edbc1bf4)"><g mask="url(#ff40c28692)"><g transform="matrix(1, 0, 0, 1, 2, 29)"><g clip-path="url(#9c1f9275a7)"><g clip-path="url(#03aba6747c)"><path fill="#000106" d="M 379.488281 195.257812 C 379.488281 200.945312 379.488281 206.632812 379.488281 212.316406 C 376.933594 204.039062 373.839844 195.882812 370.21875 187.84375 C 372.808594 230.378906 363.292969 269.933594 341.664062 306.507812 C 341.066406 279.316406 338.226562 252.371094 333.136719 225.667969 C 329.570312 206.800781 322.402344 189.496094 311.628906 173.75 C 296.257812 155.449219 277.59375 151.121094 255.632812 160.773438 C 217.292969 182.351562 176.996094 186.800781 134.746094 174.121094 C 118.089844 168.882812 102.515625 161.46875 88.023438 151.875 C 77.363281 154.929688 68.339844 160.738281 60.953125 169.300781 C 50.503906 182.296875 44.074219 197.128906 41.667969 213.800781 C 38.710938 238.382812 39.453125 262.855469 43.894531 287.222656 C 46.394531 299.695312 49.113281 312.058594 52.050781 324.304688 C 39.992188 307.105469 31.09375 288.320312 25.351562 267.941406 C 17.339844 237.554688 12.640625 206.652344 11.261719 175.234375 C 8.320312 178.917969 5.105469 182.378906 1.621094 185.617188 C 1.078125 181.789062 0.457031 178.082031 -0.234375 174.492188 C -0.234375 164.359375 -0.234375 154.222656 -0.234375 144.085938 C 4.183594 102.710938 26.1875 75.640625 65.773438 62.875 C 69.15625 61.78125 72.617188 61.164062 76.15625 61.023438 C 77.449219 42.730469 85.855469 28.765625 101.371094 19.117188 C 123.226562 6.882812 146.710938 0.953125 171.828125 1.320312 C 167.699219 2.828125 164.113281 5.175781 161.074219 8.363281 C 159.488281 11.28125 159.609375 14 161.445312 16.523438 C 182.460938 5.917969 204.707031 1.839844 228.191406 4.285156 C 254.589844 6.742188 279.3125 14.40625 302.355469 27.277344 C 288.898438 20.621094 274.804688 19.382812 260.082031 23.570312 C 255.945312 24.351562 251.992188 25.589844 248.21875 27.277344 C 293.628906 34.890625 327.867188 58.5 350.933594 98.105469 C 367.03125 128.636719 376.550781 161.023438 379.488281 195.257812 Z M 379.488281 195.257812 " fill-opacity="1" fill-rule="evenodd"/></g></g></g></g></g></svg>