<svg xmlns="http://www.w3.org/2000/svg" xmlns:xlink="http://www.w3.org/1999/xlink" width="1400" zoomAndPan="magnify" viewBox="0 0 1050 419.999985" height="560" preserveAspectRatio="xMidYMid meet" version="1.0"><defs><clipPath id="f391ac2978"><path d="M 170.101562 264 L 898 264 L 898 331.800781 L 170.101562 331.800781 Z M 170.101562 264 " clip-rule="nonzero"/></clipPath><clipPath id="437e6ce7fc"><path d="M 202.988281 264.800781 C 197.371094 268.765625 191.785156 272.785156 186.132812 276.691406 C 181.59375 279.828125 177.9375 283.742188 174.828125 288.296875 C 165.792969 301.519531 171.757812 320.367188 184.820312 327.222656 C 190.460938 330.183594 196.511719 331.28125 202.769531 331.589844 C 210.28125 331.96875 217.476562 330.722656 224.167969 327.148438 C 232.667969 322.609375 238.851562 315.742188 243.347656 307.375 C 245.542969 303.292969 247.179688 298.90625 249.0625 294.652344 C 250 292.515625 249.636719 292.542969 251.296875 292.566406 C 251.5625 292.570312 251.894531 292.574219 252.289062 292.566406 C 253.785156 292.546875 255.285156 292.597656 256.785156 292.597656 C 282.4375 292.625 308.085938 292.636719 333.738281 292.671875 C 360.222656 292.707031 386.707031 292.765625 413.1875 292.800781 C 439.398438 292.835938 465.605469 292.871094 491.8125 292.886719 C 522.570312 292.910156 553.332031 292.914062 584.09375 292.9375 C 605.917969 292.949219 627.738281 292.972656 649.558594 293.003906 C 675.984375 293.042969 702.417969 293.097656 728.84375 293.132812 C 756.164062 293.171875 783.476562 293.203125 810.796875 293.222656 C 834.785156 293.234375 858.769531 293.226562 882.757812 293.226562 C 887.753906 293.226562 892.753906 293.226562 897.75 293.234375 L 897.75 292.902344 C 896.761719 290.515625 895.769531 288.121094 894.804688 285.722656 C 893.726562 283.0625 894.398438 283.492188 891.550781 283.492188 C 675.828125 283.480469 460.113281 283.480469 244.390625 283.480469 C 244.058594 283.480469 243.722656 283.519531 243.394531 283.476562 C 242.347656 283.339844 241.78125 283.71875 241.515625 284.804688 C 241.089844 286.519531 240.496094 288.195312 239.984375 289.894531 C 237.957031 296.632812 235.074219 302.925781 230.730469 308.539062 C 222.117188 319.671875 210.75 323.335938 197.246094 320.789062 C 192.53125 319.90625 188.128906 317.917969 184.832031 314.15625 C 179.089844 307.601562 177.832031 297.84375 181.6875 290.015625 C 184.210938 284.890625 188.214844 280.96875 192.226562 277.039062 C 195.394531 273.933594 198.554688 270.816406 201.652344 267.640625 C 202.539062 266.734375 203.199219 265.609375 203.96875 264.585938 L 203.675781 264.355469 C 203.445312 264.503906 203.210938 264.640625 202.988281 264.800781 " clip-rule="nonzero"/></clipPath><clipPath id="94b5dc38db"><path d="M 187 52.5 L 539 52.5 L 539 180 L 187 180 Z M 187 52.5 " clip-rule="nonzero"/></clipPath><clipPath id="ce8586b788"><path d="M 525.910156 52.855469 C 525.546875 53.535156 525.085938 54.179688 524.828125 54.898438 C 522.949219 60.109375 521.042969 65.308594 519.292969 70.558594 C 518.441406 73.109375 518.226562 75.804688 519.003906 78.429688 C 519.433594 79.886719 520.136719 81.265625 520.59375 82.371094 C 518.867188 83.25 516.992188 83.902344 515.492188 85.035156 C 512.695312 87.15625 512.664062 90.5 515.167969 92.980469 C 516.871094 94.671875 518.992188 95.355469 521.339844 95.496094 C 522.414062 95.5625 523.488281 95.644531 524.859375 95.742188 C 524.214844 100.007812 523.910156 104.066406 522.957031 107.964844 C 520.992188 115.976562 516.628906 122.796875 511.550781 129.1875 C 504.25 138.386719 495.074219 144.765625 483.519531 147.402344 C 461.984375 152.320312 440.164062 154.144531 418.097656 153.535156 C 404.773438 153.15625 391.507812 152.0625 378.308594 150.296875 C 361.433594 148.042969 344.613281 145.425781 327.980469 141.738281 C 316.617188 139.210938 305.242188 136.730469 293.957031 133.878906 C 282.070312 130.875 270.25 127.691406 258.03125 126.265625 C 248.367188 125.140625 238.71875 124.679688 228.984375 125.65625 C 217.246094 126.835938 207.464844 131.835938 199.175781 139.984375 C 195.683594 143.421875 192.5 147.121094 190.753906 151.820312 C 188.277344 158.46875 187.003906 165.265625 188.390625 172.359375 C 188.886719 174.902344 189.417969 177.433594 189.9375 179.972656 C 190.070312 179.96875 190.203125 179.960938 190.339844 179.960938 C 190.589844 179.132812 190.851562 178.3125 191.089844 177.484375 C 193.351562 169.507812 196.3125 161.824219 200.875 154.84375 C 204.585938 149.164062 209.320312 144.589844 215.582031 141.742188 C 222.203125 138.71875 229.269531 137.59375 236.433594 137.230469 C 248.382812 136.628906 260.320312 137.292969 272.105469 139.261719 C 286.421875 141.652344 300.664062 144.519531 314.933594 147.226562 C 324.574219 149.054688 334.160156 151.15625 343.835938 152.769531 C 351.210938 153.996094 358.675781 154.734375 366.121094 155.507812 C 374.339844 156.363281 382.574219 157.082031 390.8125 157.738281 C 398.113281 158.320312 405.421875 158.765625 412.730469 159.195312 C 421.4375 159.714844 430.15625 159.664062 438.839844 158.867188 C 446.015625 158.210938 453.175781 157.320312 460.324219 156.390625 C 468.582031 155.320312 476.714844 153.636719 484.65625 151.070312 C 495.21875 147.65625 504.742188 142.636719 512.347656 134.296875 C 521.203125 124.574219 526.796875 113.519531 527.328125 100.183594 C 527.390625 98.664062 527.660156 97.148438 527.777344 96.066406 C 530.363281 95.460938 532.617188 95.140625 534.71875 94.390625 C 537.035156 93.570312 538.742188 91.867188 538.84375 89.25 C 538.941406 86.753906 537.363281 85.171875 535.300781 84.042969 C 534.628906 83.667969 533.878906 83.425781 533.15625 83.136719 C 532.617188 82.917969 532.070312 82.707031 531.578125 82.515625 C 531.609375 82.203125 531.585938 82.074219 531.636719 81.992188 C 534.304688 77.902344 534.09375 73.675781 532.4375 69.273438 C 530.394531 63.832031 528.523438 58.328125 526.574219 52.855469 Z M 525.910156 52.855469 " clip-rule="nonzero"/></clipPath><clipPath id="72da63ba7d"><path d="M 164 118 L 235 118 L 235 313.949219 L 164 313.949219 Z M 164 118 " clip-rule="nonzero"/></clipPath><clipPath id="d51500803d"><path d="M 209.71875 118.914062 C 201.015625 120.21875 193.011719 123.402344 185.855469 128.492188 C 168.328125 140.960938 161.945312 158.230469 164.664062 179.136719 C 165.710938 187.195312 169.074219 194.507812 173.742188 201.0625 C 179.917969 209.738281 186.425781 218.175781 192.890625 226.628906 C 196.222656 230.984375 199.996094 235.015625 203.179688 239.46875 C 207.789062 245.90625 210.105469 253.140625 209.707031 261.175781 C 209.417969 267.117188 207.628906 272.371094 203.378906 276.644531 C 200.910156 279.117188 198.390625 281.539062 195.890625 283.980469 C 193.386719 286.429688 190.957031 288.925781 189.527344 292.222656 C 186.160156 299.996094 189.203125 308.699219 196.511719 311.535156 C 202.347656 313.800781 208.1875 313.589844 213.675781 310.414062 C 220.390625 306.527344 225.386719 300.980469 228.730469 293.980469 C 231.617188 287.957031 232.695312 281.449219 233.75 274.933594 C 234.566406 269.894531 234.566406 264.886719 233.558594 259.882812 C 231.917969 251.710938 228.222656 244.449219 222.988281 238.101562 C 216.816406 230.617188 210.21875 223.488281 203.789062 216.21875 C 198.386719 210.105469 192.683594 204.242188 188.265625 197.34375 C 183.164062 189.375 179.351562 180.867188 178.386719 171.328125 C 177.191406 159.488281 180.644531 149 187.785156 139.617188 C 194.398438 130.933594 203.273438 125.480469 213.363281 121.808594 C 216.316406 120.730469 219.355469 119.886719 222.355469 118.941406 C 222.332031 118.820312 222.308594 118.699219 222.285156 118.582031 C 220.546875 118.476562 218.8125 118.410156 217.082031 118.410156 C 214.621094 118.410156 212.167969 118.546875 209.71875 118.914062 " clip-rule="nonzero"/></clipPath><clipPath id="150ce5e096"><path d="M 489.300781 86.101562 L 612 86.101562 L 612 155.402344 L 489.300781 155.402344 Z M 489.300781 86.101562 " clip-rule="nonzero"/></clipPath><clipPath id="a6eff5e6aa"><path d="M 556.636719 88.265625 C 554.003906 90.339844 553.3125 93.738281 555.003906 96.597656 C 555.480469 97.398438 556.085938 98.136719 556.691406 98.855469 C 557.136719 99.390625 557.269531 99.824219 556.882812 100.476562 C 555.617188 102.625 554.527344 104.886719 553.167969 106.96875 C 550.753906 110.648438 547.992188 114.0625 544.085938 116.300781 C 541 118.070312 538.125 117.871094 535.476562 115.511719 C 534.136719 114.3125 533.085938 112.761719 531.953125 111.335938 C 531.390625 110.628906 530.941406 109.832031 530.304688 108.867188 C 529.964844 109.640625 529.738281 110.132812 529.527344 110.628906 C 527.671875 115.015625 525.953125 119.460938 523.929688 123.769531 C 520.652344 130.757812 516.550781 137.25 510.351562 142.027344 C 504.046875 146.882812 497.863281 152.027344 490.164062 154.710938 C 490.078125 154.734375 490.03125 154.847656 489.816406 155.097656 L 577.425781 155.097656 C 580.699219 155.097656 580.914062 154.824219 581.902344 151.664062 C 583.636719 146.117188 585.371094 140.5625 587.367188 135.105469 C 589.867188 128.285156 592.730469 121.558594 597.269531 115.8125 C 600.558594 111.648438 604.316406 107.84375 607.890625 103.898438 C 609.007812 102.667969 610.246094 101.542969 611.324219 100.28125 C 611.652344 99.890625 611.785156 99.175781 611.710938 98.652344 C 611.679688 98.449219 610.804688 98.191406 610.355469 98.25 C 608.824219 98.453125 607.261719 98.636719 605.789062 99.09375 C 598.871094 101.222656 592.96875 105.089844 587.730469 110.007812 C 586.828125 110.859375 586.027344 111.191406 584.804688 110.695312 C 583.582031 110.195312 582.273438 109.890625 580.976562 109.589844 C 578.195312 108.9375 575.382812 108.683594 572.582031 109.484375 C 571.332031 109.84375 570.214844 110.421875 569.777344 111.9375 C 570.554688 112.554688 571.300781 113.207031 572.105469 113.773438 C 575.207031 115.984375 576.953125 119.035156 577.734375 122.695312 C 578.097656 124.453125 577.910156 126.105469 576.652344 127.617188 C 574.523438 127.183594 572.714844 126.164062 571.09375 124.785156 C 566.535156 120.90625 563.851562 115.859375 562.320312 110.199219 C 561.691406 107.871094 561.550781 105.40625 561.3125 102.992188 C 561.195312 101.800781 561.675781 100.761719 562.652344 99.925781 C 563.617188 99.097656 564.5 98.148438 565.285156 97.152344 C 567.332031 94.542969 567.046875 90.882812 564.695312 88.511719 C 563.59375 87.40625 562.136719 86.851562 560.636719 86.851562 C 559.257812 86.851562 557.84375 87.316406 556.636719 88.265625 " clip-rule="nonzero"/></clipPath><clipPath id="d0a2529fe9"><path d="M 708 171.152344 L 787.5 171.152344 L 787.5 273 L 708 273 Z M 708 171.152344 " clip-rule="nonzero"/></clipPath><clipPath id="8305a16ff0"><path d="M 708.625 171.632812 L 708.625 272.242188 L 717.894531 272.242188 L 717.894531 185.121094 C 718.046875 185.074219 718.203125 185.027344 718.355469 184.980469 C 719.21875 186.238281 720.109375 187.484375 720.949219 188.757812 C 738.667969 215.601562 756.382812 242.445312 774.105469 269.285156 C 776.144531 272.375 776.171875 272.359375 779.933594 272.359375 L 787.136719 272.359375 C 787.246094 267.863281 787.4375 263.664062 787.4375 259.457031 C 787.386719 233.773438 787.300781 208.09375 787.21875 182.40625 C 787.207031 179.359375 787.128906 176.308594 786.996094 173.261719 C 786.976562 172.777344 786.53125 171.910156 786.257812 171.902344 C 783.5 171.800781 780.738281 171.839844 777.816406 171.839844 L 777.816406 239.933594 C 777.816406 243.207031 777.835938 246.480469 777.804688 249.753906 C 777.773438 252.886719 777.9375 256.035156 777.472656 259.199219 C 776.5 258.207031 775.75 257.195312 775.050781 256.140625 C 771.917969 251.433594 768.800781 246.710938 765.679688 241.996094 C 754.078125 224.472656 742.480469 206.945312 730.875 189.414062 C 727.324219 184.050781 723.804688 178.667969 720.183594 173.347656 C 719.683594 172.609375 718.710938 171.761719 717.90625 171.710938 C 716.519531 171.625 715.125 171.601562 713.714844 171.601562 C 712.046875 171.601562 710.355469 171.632812 708.625 171.632812 " clip-rule="nonzero"/></clipPath><clipPath id="dedec7b9a9"><path d="M 505.050781 171.152344 L 580.648438 171.152344 L 580.648438 273 L 505.050781 273 Z M 505.050781 171.152344 " clip-rule="nonzero"/></clipPath><clipPath id="9e2bf4e358"><path d="M 518.890625 171.6875 L 507.503906 171.6875 C 506.90625 171.6875 506.3125 171.761719 505.667969 171.800781 L 505.667969 272.164062 L 514.8125 272.164062 L 514.8125 228.789062 C 514.816406 226.726562 514.835938 226.683594 516.808594 226.683594 C 527.582031 226.675781 538.355469 226.605469 549.125 226.722656 C 552.859375 226.761719 556.519531 227.609375 559.722656 229.707031 C 563.164062 231.972656 564.429688 235.476562 564.859375 239.34375 C 565.6875 246.84375 566.417969 254.34375 567.265625 261.828125 C 567.570312 264.519531 567.953125 267.214844 568.578125 269.847656 C 569.148438 272.25 569.550781 272.457031 572.058594 272.53125 C 574.632812 272.601562 577.207031 272.546875 580.152344 272.546875 C 578.316406 269.921875 577.207031 267.382812 576.957031 264.601562 C 576.53125 259.851562 576.15625 255.097656 575.945312 250.335938 C 575.703125 244.84375 575.515625 239.371094 573.890625 234.054688 C 572.460938 229.386719 569.863281 225.703125 565.226562 223.710938 C 564.683594 223.46875 564.1875 223.125 563.453125 222.710938 C 564.773438 221.96875 565.917969 221.335938 567.0625 220.6875 C 572.5 217.609375 576.492188 213.304688 578.121094 207.160156 C 579.496094 201.945312 579.667969 196.648438 578.617188 191.335938 C 577.007812 183.210938 572.246094 177.71875 564.582031 174.722656 C 559.472656 172.722656 554.097656 171.804688 548.640625 171.761719 C 541.082031 171.695312 533.535156 171.683594 525.984375 171.683594 C 523.617188 171.683594 521.253906 171.683594 518.890625 171.6875 M 524.648438 179.695312 C 532.140625 179.695312 539.636719 179.6875 547.140625 179.765625 C 551.710938 179.816406 556.195312 180.585938 560.4375 182.402344 C 566.015625 184.789062 569.035156 189.105469 569.523438 195.070312 C 569.734375 197.707031 569.726562 200.417969 569.316406 203.007812 C 568.199219 210.109375 563.597656 214.253906 557.074219 216.582031 C 552.894531 218.074219 548.566406 218.625 544.15625 218.625 C 535.324219 218.625 526.5 218.628906 517.667969 218.617188 C 516.796875 218.613281 515.925781 218.507812 515.007812 218.449219 L 515.007812 179.832031 C 515.957031 179.777344 516.726562 179.695312 517.492188 179.695312 C 518.289062 179.703125 519.082031 179.703125 519.878906 179.703125 C 521.46875 179.703125 523.054688 179.695312 524.648438 179.695312 " clip-rule="nonzero"/></clipPath><clipPath id="206a6b4271"><path d="M 595.347656 168 L 689.847656 168 L 689.847656 276 L 595.347656 276 Z M 595.347656 168 " clip-rule="nonzero"/></clipPath><clipPath id="cf5ab9bdb6"><path d="M 635.820312 169.328125 C 622.09375 170.792969 611.453125 177.277344 604.164062 189.066406 C 597.945312 199.105469 595.285156 210.109375 595.449219 221.855469 C 595.449219 234.617188 597.996094 244.789062 603.589844 254.140625 C 608.933594 263.070312 616.226562 269.671875 626.320312 272.792969 C 633.78125 275.101562 641.421875 275.75 649.179688 274.828125 C 656.5 273.960938 663.367188 271.785156 669.449219 267.5 C 677.25 261.992188 682.234375 254.398438 685.554688 245.597656 C 687.957031 239.207031 688.847656 232.53125 689.382812 225.765625 C 690.339844 213.640625 688.269531 202.136719 682.480469 191.386719 C 677.445312 182.046875 670.128906 175.230469 659.964844 171.777344 C 654.269531 169.839844 648.445312 168.964844 642.542969 168.964844 C 640.3125 168.964844 638.070312 169.089844 635.820312 169.328125 M 625.832031 263.6875 C 618.503906 260.355469 613.652344 254.585938 610.257812 247.46875 C 606.476562 239.539062 604.859375 231.804688 604.859375 222.335938 C 604.875 211.941406 607.058594 202.089844 612.410156 193.078125 C 617.984375 183.695312 626.289062 178.570312 637.105469 177.339844 C 643.953125 176.566406 650.605469 177.195312 657.089844 179.570312 C 665.773438 182.75 672.015625 188.648438 675.335938 197.160156 C 681.738281 213.582031 682.023438 230.152344 675.0625 246.535156 C 671.722656 254.402344 666.414062 260.570312 658.390625 264.066406 C 653.746094 266.089844 648.84375 266.894531 643.8125 267.058594 C 643.277344 267.074219 642.75 267.082031 642.222656 267.082031 C 636.546875 267.082031 631.054688 266.066406 625.832031 263.6875 " clip-rule="nonzero"/></clipPath><clipPath id="d5fb3c9115"><path d="M 588 124.953125 L 865 124.953125 L 865 179.550781 L 588 179.550781 Z M 588 124.953125 " clip-rule="nonzero"/></clipPath><clipPath id="69c9144e41"><path d="M 785.269531 127.632812 C 776.25 129.414062 767.320312 131.679688 758.402344 133.917969 C 742.761719 137.851562 727.113281 141.78125 711.195312 144.449219 C 700.097656 146.308594 688.996094 148.226562 677.847656 149.71875 C 668.125 151.023438 658.339844 151.921875 648.5625 152.710938 C 641.542969 153.28125 634.492188 153.453125 627.453125 153.660156 C 617.070312 153.972656 606.703125 153.769531 596.375 152.5 C 593.882812 152.191406 591.371094 152.035156 588.863281 151.804688 L 588.765625 152.117188 C 589.558594 152.460938 590.328125 152.851562 591.132812 153.136719 C 601.511719 156.792969 612.203125 158.8125 623.195312 159.292969 C 633.304688 159.738281 643.382812 159.035156 653.453125 158.28125 C 663.851562 157.503906 674.257812 156.761719 684.628906 155.730469 C 693.066406 154.890625 701.527344 154 709.867188 152.507812 C 723.828125 150.015625 737.691406 146.921875 751.628906 144.28125 C 761.15625 142.476562 770.722656 140.832031 780.324219 139.449219 C 786.621094 138.539062 793.011719 138.203125 799.367188 137.640625 C 807.566406 136.914062 815.773438 136.808594 823.929688 138.121094 C 833.566406 139.667969 841.785156 143.898438 848.402344 151.140625 C 854.472656 157.777344 858.109375 165.78125 861.285156 174.03125 C 861.738281 175.207031 861.851562 176.507812 862.117188 177.753906 C 862.238281 178.332031 862.34375 178.914062 862.457031 179.5 C 863.144531 176.804688 863.585938 174.125 863.984375 171.449219 C 865.113281 163.996094 864.109375 156.871094 860.625 150.140625 C 857.210938 143.523438 851.988281 138.511719 846.148438 134.09375 C 837.949219 127.894531 828.386719 125.699219 818.386719 125.152344 C 816.152344 125.027344 813.925781 124.96875 811.699219 124.96875 C 802.820312 124.96875 793.992188 125.917969 785.269531 127.632812 " clip-rule="nonzero"/></clipPath><clipPath id="7ea1f6cce1"><path d="M 801.148438 171.152344 L 890.398438 171.152344 L 890.398438 273 L 801.148438 273 Z M 801.148438 171.152344 " clip-rule="nonzero"/></clipPath><clipPath id="305efea72f"><path d="M 849.800781 171.652344 C 847.644531 171.765625 845.472656 171.683594 843.308594 171.683594 C 840.746094 171.683594 840.703125 171.664062 839.75 174.058594 C 832.960938 191.089844 826.101562 208.097656 819.4375 225.175781 C 813.625 240.085938 808.023438 255.089844 802.34375 270.050781 C 802.082031 270.75 801.90625 271.492188 801.597656 272.492188 C 804.101562 272.492188 806.355469 272.496094 808.613281 272.492188 C 811.171875 272.484375 810.621094 272.585938 811.40625 270.523438 C 815.128906 260.746094 818.8125 250.945312 822.527344 241.09375 L 868.78125 241.09375 C 869.011719 241.683594 869.214844 242.191406 869.410156 242.710938 C 872.859375 252.0625 876.339844 261.40625 879.742188 270.777344 C 880.21875 272.101562 880.785156 272.722656 882.3125 272.625 C 884.574219 272.472656 886.855469 272.609375 889.132812 272.617188 C 889.433594 272.617188 889.726562 272.539062 890.136719 272.480469 C 889.863281 271.707031 889.65625 271.078125 889.421875 270.464844 C 881.734375 250.457031 874.042969 230.449219 866.359375 210.4375 C 861.59375 198.027344 856.808594 185.621094 852.089844 173.195312 C 851.667969 172.101562 851.136719 171.644531 850.035156 171.644531 C 849.960938 171.644531 849.878906 171.644531 849.800781 171.652344 M 845.378906 180.375 C 845.5625 180.359375 845.75 180.339844 845.9375 180.324219 C 852.425781 197.675781 858.914062 215.03125 865.480469 232.582031 L 825.867188 232.582031 C 832.414062 215.074219 838.898438 197.730469 845.378906 180.375 " clip-rule="nonzero"/></clipPath><clipPath id="29d71ffb79"><path d="M 243.597656 171.152344 L 333 171.152344 L 333 273 L 243.597656 273 Z M 243.597656 171.152344 " clip-rule="nonzero"/></clipPath><clipPath id="2e7344962b"><path d="M 282.632812 173.347656 C 270.613281 204.03125 258.539062 234.695312 246.480469 265.363281 C 245.554688 267.722656 244.640625 270.085938 243.652344 272.625 C 246.523438 272.625 249.179688 272.574219 251.835938 272.648438 C 253.019531 272.6875 253.59375 272.3125 254.011719 271.167969 C 256.296875 264.871094 258.675781 258.601562 261.035156 252.328125 C 262.457031 248.554688 263.902344 244.78125 265.328125 241.050781 L 311.550781 241.050781 C 313.261719 245.675781 314.96875 250.292969 316.675781 254.90625 C 318.671875 260.3125 320.65625 265.714844 322.671875 271.113281 C 322.902344 271.730469 322.910156 272.582031 323.960938 272.574219 C 326.828125 272.546875 329.703125 272.5625 332.902344 272.5625 C 332.535156 271.574219 332.335938 271.011719 332.125 270.460938 C 326.988281 257.0625 321.851562 243.671875 316.710938 230.28125 C 309.40625 211.253906 302.089844 192.234375 294.820312 173.195312 C 294.402344 172.097656 293.890625 171.652344 292.675781 171.695312 C 290.125 171.796875 287.5625 171.816406 285.019531 171.6875 C 284.941406 171.683594 284.867188 171.683594 284.796875 171.683594 C 283.601562 171.683594 283.085938 172.1875 282.632812 173.347656 M 288.105469 180.484375 C 288.269531 180.453125 288.445312 180.421875 288.613281 180.394531 C 290.972656 186.039062 292.964844 191.835938 295.132812 197.5625 C 297.328125 203.359375 299.484375 209.175781 301.660156 214.984375 C 303.824219 220.785156 305.992188 226.582031 308.210938 232.535156 L 268.648438 232.535156 C 275.164062 215.101562 281.632812 197.792969 288.105469 180.484375 " clip-rule="nonzero"/></clipPath><clipPath id="634eb0b2ba"><path d="M 402.148438 171.152344 L 492 171.152344 L 492 273 L 402.148438 273 Z M 402.148438 171.152344 " clip-rule="nonzero"/></clipPath><clipPath id="062463a5c4"><path d="M 441.648438 173.257812 C 428.910156 205.734375 416.140625 238.203125 403.382812 270.675781 C 403.195312 271.15625 403.050781 271.660156 402.828125 272.359375 C 405.75 272.359375 408.414062 272.308594 411.058594 272.382812 C 412.128906 272.414062 412.625 272.054688 412.988281 271.0625 C 414.835938 266.019531 416.757812 261 418.660156 255.980469 C 420.535156 251.007812 422.417969 246.039062 424.308594 241.054688 L 470.539062 241.054688 C 471.125 242.644531 471.703125 244.199219 472.277344 245.757812 C 475.40625 254.222656 478.546875 262.6875 481.636719 271.164062 C 482.015625 272.1875 482.476562 272.777344 483.652344 272.597656 C 484.246094 272.503906 484.875 272.582031 485.480469 272.582031 L 491.835938 272.582031 C 491.519531 271.640625 491.359375 271.070312 491.144531 270.523438 C 483.855469 251.496094 476.554688 232.472656 469.253906 213.449219 C 464.113281 200.054688 458.964844 186.671875 453.863281 173.265625 C 453.449219 172.175781 452.933594 171.6875 451.789062 171.6875 C 451.726562 171.6875 451.65625 171.691406 451.589844 171.691406 C 449.046875 171.804688 446.480469 171.804688 443.9375 171.691406 C 443.867188 171.691406 443.804688 171.6875 443.742188 171.6875 C 442.59375 171.6875 442.066406 172.175781 441.648438 173.257812 M 447.136719 180.359375 C 447.320312 180.347656 447.507812 180.339844 447.695312 180.335938 C 454.191406 197.707031 460.683594 215.078125 467.21875 232.5625 L 427.632812 232.5625 C 434.164062 215.09375 440.652344 197.722656 447.136719 180.359375 " clip-rule="nonzero"/></clipPath><clipPath id="272c07a948"><path d="M 327.597656 171.152344 L 408 171.152344 L 408 273 L 327.597656 273 Z M 327.597656 171.152344 " clip-rule="nonzero"/></clipPath><clipPath id="5575bc7141"><path d="M 397.640625 173.246094 C 389.078125 198.699219 380.480469 224.140625 371.886719 249.585938 C 370.652344 253.246094 369.390625 256.894531 368.136719 260.546875 L 367.695312 260.601562 C 367.492188 260.117188 367.265625 259.636719 367.097656 259.136719 C 357.675781 231.464844 348.265625 203.78125 338.835938 176.109375 C 338.363281 174.707031 338.144531 172.816406 337.132812 172.105469 C 336.40625 171.597656 335.261719 171.679688 334.121094 171.761719 C 333.65625 171.796875 333.195312 171.828125 332.765625 171.820312 C 331.132812 171.796875 329.496094 171.816406 327.644531 171.816406 C 328.117188 173.34375 328.457031 174.554688 328.867188 175.746094 C 337.035156 199.289062 345.203125 222.828125 353.382812 246.371094 C 356.21875 254.527344 359.101562 262.671875 361.90625 270.84375 C 362.335938 272.09375 362.921875 272.636719 364.285156 272.527344 C 365.101562 272.457031 365.917969 272.496094 366.734375 272.53125 C 367.25 272.558594 367.765625 272.578125 368.28125 272.574219 C 368.6875 272.574219 369.128906 272.605469 369.566406 272.644531 C 370.675781 272.726562 371.789062 272.816406 372.484375 272.3125 C 373.523438 271.574219 373.871094 269.769531 374.355469 268.367188 C 384.753906 238.335938 395.136719 208.289062 405.503906 178.242188 C 406.222656 176.171875 406.800781 174.054688 407.515625 171.726562 C 404.710938 171.726562 402.21875 171.800781 399.734375 171.695312 C 399.667969 171.691406 399.605469 171.691406 399.546875 171.691406 C 398.441406 171.691406 397.996094 172.1875 397.640625 173.246094 " clip-rule="nonzero"/></clipPath><clipPath id="9bf49c6a74"><path d="M 440 86.101562 L 515 86.101562 L 515 147 L 440 147 Z M 440 86.101562 " clip-rule="nonzero"/></clipPath><clipPath id="8b3c64d73e"><path d="M 486.101562 90.753906 C 484.726562 93.921875 485.714844 97.277344 488.78125 99.105469 C 490.441406 100.105469 491.089844 101.394531 490.890625 103.234375 C 490.777344 104.226562 490.695312 105.21875 490.570312 106.210938 C 489.511719 114.75 485.640625 121.640625 478.488281 126.550781 C 477.617188 127.148438 476.519531 127.410156 475.519531 127.832031 C 474.507812 126.003906 474.132812 124.328125 474.546875 122.503906 C 475.335938 119.03125 476.996094 116.117188 479.871094 113.941406 C 480.878906 113.179688 481.832031 112.355469 482.992188 111.40625 C 480.746094 109.867188 478.597656 109.160156 476.191406 109.074219 C 472.957031 108.957031 469.949219 109.929688 466.921875 110.824219 C 465.9375 111.117188 465.386719 110.933594 464.636719 110.210938 C 458.800781 104.566406 452.054688 100.441406 444.132812 98.382812 C 442.816406 98.039062 441.539062 97.976562 440.140625 98.820312 C 440.578125 99.335938 440.941406 99.796875 441.328125 100.230469 C 444.042969 103.234375 446.664062 106.328125 449.492188 109.21875 C 455.132812 114.972656 459.296875 121.636719 462.289062 129.074219 C 464.390625 134.3125 466.523438 139.546875 468.582031 144.800781 C 468.988281 145.828125 469.453125 146.351562 470.632812 146.148438 C 472.382812 145.851562 474.164062 145.761719 475.90625 145.449219 C 492.878906 142.382812 505.660156 133.375 514.214844 118.402344 C 514.410156 118.050781 514.515625 117.652344 514.738281 117.085938 C 511.222656 117.988281 508.433594 116.84375 505.878906 114.859375 C 500.90625 110.988281 497.863281 105.75 495.425781 100.089844 C 495.253906 99.6875 495.566406 98.976562 495.828125 98.507812 C 496.367188 97.550781 497.175781 96.722656 497.613281 95.734375 C 499.039062 92.480469 497.429688 88.859375 494 87.40625 C 493.164062 87.046875 492.324219 86.871094 491.511719 86.871094 C 489.214844 86.871094 487.171875 88.265625 486.101562 90.753906 " clip-rule="nonzero"/></clipPath></defs><path fill="#000000" d="M 202.988281 264.796875 C 197.371094 268.765625 191.785156 272.78125 186.128906 276.691406 C 181.59375 279.828125 177.9375 283.742188 174.828125 288.296875 C 165.792969 301.519531 171.753906 320.367188 184.820312 327.222656 C 190.460938 330.183594 196.511719 331.28125 202.769531 331.589844 C 210.28125 331.96875 217.476562 330.71875 224.167969 327.148438 C 232.667969 322.609375 238.851562 315.742188 243.347656 307.375 C 245.542969 303.289062 247.179688 298.90625 249.0625 294.652344 C 250 292.515625 249.636719 292.542969 251.296875 292.566406 C 251.5625 292.570312 251.894531 292.574219 252.289062 292.566406 C 253.785156 292.546875 255.285156 292.597656 256.785156 292.597656 C 282.4375 292.625 308.085938 292.636719 333.738281 292.671875 C 360.222656 292.703125 386.707031 292.765625 413.1875 292.800781 C 439.398438 292.835938 465.605469 292.871094 491.8125 292.886719 C 522.570312 292.910156 553.332031 292.914062 584.09375 292.9375 C 605.917969 292.949219 627.738281 292.972656 649.558594 293.003906 C 675.984375 293.042969 702.417969 293.097656 728.84375 293.132812 C 756.164062 293.171875 783.476562 293.203125 810.796875 293.222656 C 834.785156 293.230469 858.769531 293.222656 882.757812 293.222656 C 887.753906 293.222656 892.753906 293.226562 897.746094 293.230469 L 897.746094 292.902344 C 896.761719 290.511719 895.769531 288.121094 894.800781 285.722656 C 893.726562 283.0625 894.394531 283.492188 891.546875 283.492188 C 675.828125 283.480469 460.109375 283.480469 244.390625 283.480469 C 244.058594 283.480469 243.722656 283.519531 243.390625 283.476562 C 242.347656 283.335938 241.78125 283.71875 241.515625 284.804688 C 241.089844 286.519531 240.492188 288.195312 239.984375 289.890625 C 237.957031 296.632812 235.074219 302.925781 230.730469 308.539062 C 222.117188 319.671875 210.75 323.335938 197.242188 320.789062 C 192.53125 319.902344 188.125 317.917969 184.832031 314.15625 C 179.089844 307.597656 177.832031 297.84375 181.6875 290.015625 C 184.210938 284.890625 188.214844 280.964844 192.226562 277.039062 C 195.394531 273.933594 198.554688 270.816406 201.652344 267.640625 C 202.539062 266.734375 203.199219 265.609375 203.96875 264.582031 L 203.675781 264.355469 C 203.445312 264.503906 203.210938 264.640625 202.988281 264.796875 " fill-opacity="1" fill-rule="nonzero"/><g clip-path="url(#f391ac2978)"><g clip-path="url(#437e6ce7fc)"><path fill="#000000" d="M 786.625 1.699219 L 922.007812 321.703125 L 276.917969 594.625 L 141.53125 274.621094 Z M 786.625 1.699219 " fill-opacity="1" fill-rule="nonzero"/></g></g><path fill="#000000" d="M 525.914062 52.855469 C 525.546875 53.535156 525.085938 54.179688 524.828125 54.898438 C 522.949219 60.109375 521.042969 65.308594 519.292969 70.558594 C 518.445312 73.109375 518.226562 75.800781 519.003906 78.429688 C 519.4375 79.882812 520.136719 81.265625 520.59375 82.371094 C 518.867188 83.25 516.992188 83.902344 515.492188 85.035156 C 512.699219 87.15625 512.664062 90.5 515.167969 92.980469 C 516.875 94.671875 518.996094 95.355469 521.339844 95.492188 C 522.414062 95.5625 523.488281 95.644531 524.859375 95.742188 C 524.214844 100.007812 523.910156 104.066406 522.957031 107.964844 C 520.992188 115.976562 516.628906 122.796875 511.554688 129.183594 C 504.25 138.386719 495.074219 144.765625 483.519531 147.402344 C 461.988281 152.320312 440.164062 154.144531 418.097656 153.535156 C 404.773438 153.15625 391.511719 152.0625 378.308594 150.296875 C 361.433594 148.042969 344.613281 145.425781 327.984375 141.738281 C 316.617188 139.210938 305.242188 136.730469 293.957031 133.878906 C 282.074219 130.875 270.25 127.691406 258.035156 126.265625 C 248.367188 125.140625 238.71875 124.679688 228.984375 125.65625 C 217.246094 126.835938 207.464844 131.835938 199.175781 139.984375 C 195.683594 143.417969 192.5 147.121094 190.753906 151.820312 C 188.28125 158.46875 187.003906 165.265625 188.390625 172.359375 C 188.886719 174.898438 189.417969 177.433594 189.9375 179.972656 C 190.070312 179.96875 190.203125 179.960938 190.339844 179.960938 C 190.589844 179.132812 190.851562 178.3125 191.089844 177.484375 C 193.351562 169.507812 196.3125 161.824219 200.875 154.84375 C 204.585938 149.164062 209.320312 144.589844 215.582031 141.742188 C 222.207031 138.71875 229.269531 137.589844 236.433594 137.230469 C 248.386719 136.625 260.320312 137.292969 272.105469 139.261719 C 286.425781 141.648438 300.667969 144.519531 314.933594 147.222656 C 324.574219 149.054688 334.160156 151.15625 343.835938 152.769531 C 351.210938 153.996094 358.675781 154.730469 366.121094 155.507812 C 374.339844 156.363281 382.574219 157.082031 390.816406 157.738281 C 398.113281 158.316406 405.425781 158.761719 412.730469 159.195312 C 421.4375 159.714844 430.15625 159.664062 438.839844 158.867188 C 446.015625 158.210938 453.175781 157.316406 460.324219 156.390625 C 468.582031 155.320312 476.714844 153.636719 484.65625 151.070312 C 495.21875 147.65625 504.746094 142.636719 512.347656 134.296875 C 521.203125 124.574219 526.796875 113.515625 527.328125 100.183594 C 527.386719 98.660156 527.660156 97.148438 527.777344 96.066406 C 530.363281 95.460938 532.617188 95.140625 534.71875 94.390625 C 537.035156 93.566406 538.742188 91.867188 538.84375 89.246094 C 538.945312 86.753906 537.363281 85.167969 535.300781 84.042969 C 534.628906 83.667969 533.882812 83.425781 533.160156 83.136719 C 532.617188 82.917969 532.070312 82.707031 531.578125 82.515625 C 531.609375 82.203125 531.585938 82.074219 531.636719 81.992188 C 534.304688 77.902344 534.097656 73.679688 532.441406 69.269531 C 530.394531 63.832031 528.523438 58.328125 526.574219 52.855469 Z M 525.914062 52.855469 " fill-opacity="1" fill-rule="nonzero"/><g clip-path="url(#94b5dc38db)"><g clip-path="url(#ce8586b788)"><path fill="#000000" d="M 485.511719 -73.433594 L 584.558594 160.671875 L 240.4375 306.265625 L 141.390625 72.15625 Z M 485.511719 -73.433594 " fill-opacity="1" fill-rule="nonzero"/></g></g><path fill="#000000" d="M 209.714844 118.914062 C 201.015625 120.21875 193.011719 123.40625 185.855469 128.492188 C 168.324219 140.964844 161.945312 158.230469 164.664062 179.136719 C 165.710938 187.195312 169.074219 194.507812 173.742188 201.066406 C 179.917969 209.742188 186.425781 218.175781 192.890625 226.628906 C 196.222656 230.984375 199.996094 235.015625 203.179688 239.46875 C 207.789062 245.90625 210.105469 253.140625 209.707031 261.179688 C 209.417969 267.117188 207.628906 272.371094 203.378906 276.644531 C 200.910156 279.117188 198.390625 281.539062 195.890625 283.980469 C 193.382812 286.433594 190.957031 288.925781 189.527344 292.222656 C 186.15625 299.996094 189.203125 308.699219 196.507812 311.535156 C 202.347656 313.800781 208.1875 313.59375 213.675781 310.414062 C 220.390625 306.527344 225.382812 300.980469 228.730469 293.980469 C 231.617188 287.957031 232.695312 281.449219 233.75 274.933594 C 234.566406 269.894531 234.566406 264.886719 233.558594 259.882812 C 231.917969 251.710938 228.222656 244.449219 222.988281 238.101562 C 216.816406 230.617188 210.21875 223.488281 203.789062 216.21875 C 198.386719 210.105469 192.683594 204.242188 188.265625 197.34375 C 183.164062 189.375 179.351562 180.867188 178.386719 171.328125 C 177.191406 159.488281 180.644531 149 187.785156 139.617188 C 194.398438 130.933594 203.269531 125.480469 213.363281 121.808594 C 216.316406 120.734375 219.355469 119.886719 222.355469 118.941406 C 222.332031 118.824219 222.308594 118.699219 222.285156 118.585938 C 220.546875 118.476562 218.8125 118.410156 217.082031 118.410156 C 214.621094 118.410156 212.164062 118.546875 209.714844 118.914062 " fill-opacity="1" fill-rule="nonzero"/><g clip-path="url(#72da63ba7d)"><g clip-path="url(#d51500803d)"><path fill="#000000" d="M 223.539062 92.347656 L 304.679688 284.136719 L 172.96875 339.859375 L 91.828125 148.074219 Z M 223.539062 92.347656 " fill-opacity="1" fill-rule="nonzero"/></g></g><path fill="#000000" d="M 556.636719 88.265625 C 554.003906 90.339844 553.3125 93.738281 555.003906 96.597656 C 555.480469 97.398438 556.085938 98.136719 556.691406 98.855469 C 557.136719 99.390625 557.269531 99.820312 556.882812 100.476562 C 555.617188 102.625 554.527344 104.882812 553.167969 106.96875 C 550.753906 110.648438 547.992188 114.0625 544.085938 116.300781 C 541 118.070312 538.125 117.867188 535.476562 115.507812 C 534.136719 114.3125 533.085938 112.761719 531.957031 111.335938 C 531.390625 110.628906 530.941406 109.832031 530.304688 108.867188 C 529.964844 109.640625 529.738281 110.132812 529.53125 110.628906 C 527.675781 115.015625 525.957031 119.460938 523.929688 123.769531 C 520.652344 130.757812 516.550781 137.25 510.351562 142.027344 C 504.046875 146.882812 497.863281 152.023438 490.164062 154.710938 C 490.078125 154.730469 490.03125 154.847656 489.816406 155.097656 L 577.425781 155.097656 C 580.699219 155.097656 580.914062 154.824219 581.902344 151.664062 C 583.636719 146.117188 585.371094 140.5625 587.367188 135.105469 C 589.867188 128.285156 592.730469 121.558594 597.269531 115.8125 C 600.558594 111.648438 604.316406 107.84375 607.890625 103.898438 C 609.007812 102.667969 610.246094 101.542969 611.324219 100.28125 C 611.652344 99.890625 611.785156 99.175781 611.710938 98.652344 C 611.679688 98.449219 610.804688 98.191406 610.355469 98.25 C 608.824219 98.453125 607.261719 98.636719 605.789062 99.089844 C 598.871094 101.222656 592.96875 105.089844 587.730469 110.007812 C 586.828125 110.859375 586.027344 111.191406 584.804688 110.695312 C 583.582031 110.191406 582.273438 109.890625 580.976562 109.589844 C 578.195312 108.9375 575.382812 108.683594 572.582031 109.484375 C 571.332031 109.84375 570.214844 110.421875 569.777344 111.933594 C 570.554688 112.554688 571.300781 113.207031 572.105469 113.773438 C 575.207031 115.980469 576.957031 119.035156 577.734375 122.695312 C 578.097656 124.453125 577.914062 126.105469 576.648438 127.617188 C 574.523438 127.183594 572.714844 126.164062 571.09375 124.785156 C 566.535156 120.90625 563.851562 115.859375 562.320312 110.195312 C 561.691406 107.871094 561.550781 105.40625 561.3125 102.988281 C 561.195312 101.800781 561.675781 100.761719 562.652344 99.925781 C 563.617188 99.097656 564.5 98.148438 565.285156 97.152344 C 567.335938 94.539062 567.046875 90.882812 564.695312 88.511719 C 563.59375 87.40625 562.136719 86.847656 560.636719 86.847656 C 559.257812 86.847656 557.84375 87.316406 556.636719 88.265625 " fill-opacity="1" fill-rule="nonzero"/><g clip-path="url(#150ce5e096)"><g clip-path="url(#a6eff5e6aa)"><path fill="#000000" d="M 593.269531 43.082031 L 636.277344 144.738281 L 508.335938 198.867188 L 465.328125 97.210938 Z M 593.269531 43.082031 " fill-opacity="1" fill-rule="nonzero"/></g></g><path fill="#000000" d="M 708.625 171.632812 L 708.625 272.242188 L 717.894531 272.242188 L 717.894531 185.121094 C 718.046875 185.074219 718.203125 185.027344 718.355469 184.976562 C 719.21875 186.238281 720.109375 187.484375 720.949219 188.757812 C 738.667969 215.601562 756.382812 242.445312 774.105469 269.285156 C 776.144531 272.375 776.171875 272.359375 779.933594 272.359375 L 787.136719 272.359375 C 787.246094 267.863281 787.4375 263.664062 787.4375 259.457031 C 787.390625 233.773438 787.300781 208.09375 787.21875 182.40625 C 787.207031 179.359375 787.128906 176.304688 786.996094 173.261719 C 786.976562 172.777344 786.53125 171.910156 786.257812 171.902344 C 783.5 171.800781 780.738281 171.839844 777.816406 171.839844 L 777.816406 239.933594 C 777.816406 243.207031 777.835938 246.480469 777.804688 249.753906 C 777.773438 252.886719 777.9375 256.035156 777.472656 259.199219 C 776.5 258.207031 775.75 257.195312 775.050781 256.140625 C 771.917969 251.433594 768.804688 246.710938 765.679688 241.992188 C 754.078125 224.472656 742.480469 206.945312 730.871094 189.414062 C 727.324219 184.050781 723.804688 178.667969 720.183594 173.347656 C 719.683594 172.609375 718.710938 171.761719 717.90625 171.710938 C 716.519531 171.625 715.125 171.601562 713.714844 171.601562 C 712.046875 171.601562 710.355469 171.632812 708.625 171.632812 " fill-opacity="1" fill-rule="nonzero"/><g clip-path="url(#d0a2529fe9)"><g clip-path="url(#8305a16ff0)"><path fill="#000000" d="M 775.472656 143.320312 L 823.597656 257.074219 L 720.589844 300.65625 L 672.460938 186.898438 Z M 775.472656 143.320312 " fill-opacity="1" fill-rule="nonzero"/></g></g><path fill="#000000" d="M 518.890625 171.6875 L 507.503906 171.6875 C 506.90625 171.6875 506.3125 171.761719 505.667969 171.800781 L 505.667969 272.164062 L 514.8125 272.164062 L 514.8125 228.792969 C 514.816406 226.726562 514.835938 226.683594 516.808594 226.683594 C 527.582031 226.675781 538.355469 226.605469 549.125 226.722656 C 552.859375 226.761719 556.519531 227.609375 559.722656 229.710938 C 563.164062 231.972656 564.429688 235.476562 564.859375 239.347656 C 565.691406 246.84375 566.414062 254.34375 567.265625 261.828125 C 567.570312 264.519531 567.953125 267.214844 568.578125 269.847656 C 569.148438 272.25 569.550781 272.460938 572.058594 272.53125 C 574.632812 272.601562 577.210938 272.546875 580.152344 272.546875 C 578.316406 269.921875 577.210938 267.382812 576.960938 264.601562 C 576.53125 259.851562 576.15625 255.097656 575.945312 250.335938 C 575.703125 244.847656 575.515625 239.371094 573.890625 234.054688 C 572.460938 229.386719 569.863281 225.703125 565.226562 223.710938 C 564.6875 223.46875 564.1875 223.125 563.453125 222.710938 C 564.773438 221.972656 565.921875 221.335938 567.0625 220.6875 C 572.5 217.609375 576.492188 213.304688 578.121094 207.160156 C 579.496094 201.945312 579.667969 196.648438 578.617188 191.335938 C 577.007812 183.210938 572.246094 177.71875 564.582031 174.722656 C 559.472656 172.726562 554.097656 171.804688 548.640625 171.761719 C 541.082031 171.695312 533.535156 171.683594 525.984375 171.683594 C 523.617188 171.683594 521.253906 171.683594 518.890625 171.6875 M 524.648438 179.695312 C 532.140625 179.695312 539.636719 179.6875 547.140625 179.765625 C 551.707031 179.816406 556.195312 180.585938 560.4375 182.402344 C 566.015625 184.789062 569.035156 189.105469 569.523438 195.070312 C 569.730469 197.707031 569.730469 200.417969 569.320312 203.011719 C 568.199219 210.109375 563.597656 214.253906 557.074219 216.582031 C 552.894531 218.074219 548.566406 218.625 544.15625 218.625 C 535.324219 218.625 526.5 218.632812 517.667969 218.617188 C 516.796875 218.613281 515.925781 218.507812 515.007812 218.449219 L 515.007812 179.832031 C 515.957031 179.777344 516.726562 179.695312 517.492188 179.695312 C 518.289062 179.703125 519.082031 179.703125 519.878906 179.703125 C 521.46875 179.703125 523.054688 179.695312 524.648438 179.695312 " fill-opacity="1" fill-rule="nonzero"/><g clip-path="url(#dedec7b9a9)"><g clip-path="url(#9e2bf4e358)"><path fill="#000000" d="M 568.84375 144.957031 L 616.367188 257.28125 L 516.976562 299.328125 L 469.453125 187.007812 Z M 568.84375 144.957031 " fill-opacity="1" fill-rule="nonzero"/></g></g><path fill="#000000" d="M 635.820312 169.332031 C 622.09375 170.792969 611.453125 177.28125 604.164062 189.066406 C 597.945312 199.105469 595.285156 210.109375 595.453125 221.855469 C 595.453125 234.617188 597.996094 244.789062 603.589844 254.140625 C 608.933594 263.070312 616.226562 269.671875 626.320312 272.792969 C 633.78125 275.101562 641.421875 275.75 649.179688 274.828125 C 656.5 273.957031 663.367188 271.789062 669.449219 267.5 C 677.25 261.992188 682.234375 254.398438 685.554688 245.597656 C 687.957031 239.207031 688.847656 232.53125 689.382812 225.765625 C 690.339844 213.640625 688.269531 202.136719 682.480469 191.386719 C 677.445312 182.046875 670.128906 175.230469 659.964844 171.777344 C 654.269531 169.839844 648.445312 168.964844 642.542969 168.964844 C 640.3125 168.964844 638.074219 169.089844 635.820312 169.332031 M 625.832031 263.6875 C 618.503906 260.355469 613.652344 254.585938 610.257812 247.46875 C 606.476562 239.539062 604.859375 231.804688 604.859375 222.335938 C 604.875 211.941406 607.058594 202.09375 612.410156 193.078125 C 617.984375 183.695312 626.289062 178.570312 637.109375 177.339844 C 643.953125 176.566406 650.605469 177.195312 657.09375 179.570312 C 665.773438 182.75 672.015625 188.648438 675.335938 197.160156 C 681.738281 213.582031 682.023438 230.15625 675.066406 246.535156 C 671.722656 254.402344 666.414062 260.570312 658.390625 264.066406 C 653.746094 266.089844 648.84375 266.894531 643.808594 267.058594 C 643.277344 267.074219 642.75 267.082031 642.222656 267.082031 C 636.542969 267.082031 631.054688 266.066406 625.832031 263.6875 " fill-opacity="1" fill-rule="nonzero"/><g clip-path="url(#206a6b4271)"><g clip-path="url(#cf5ab9bdb6)"><path fill="#000000" d="M 675.910156 134.855469 L 728.660156 259.539062 L 609.714844 309.859375 L 556.964844 185.175781 Z M 675.910156 134.855469 " fill-opacity="1" fill-rule="nonzero"/></g></g><path fill="#000000" d="M 785.269531 127.632812 C 776.25 129.410156 767.320312 131.679688 758.402344 133.917969 C 742.761719 137.847656 727.113281 141.78125 711.195312 144.449219 C 700.097656 146.308594 688.996094 148.226562 677.847656 149.71875 C 668.125 151.023438 658.339844 151.921875 648.5625 152.710938 C 641.542969 153.28125 634.492188 153.453125 627.453125 153.660156 C 617.070312 153.96875 606.703125 153.769531 596.375 152.5 C 593.882812 152.191406 591.371094 152.03125 588.863281 151.804688 L 588.765625 152.117188 C 589.558594 152.457031 590.328125 152.851562 591.132812 153.136719 C 601.511719 156.792969 612.203125 158.8125 623.195312 159.292969 C 633.304688 159.738281 643.382812 159.035156 653.453125 158.28125 C 663.851562 157.503906 674.257812 156.761719 684.628906 155.730469 C 693.066406 154.890625 701.527344 154 709.867188 152.507812 C 723.828125 150.015625 737.691406 146.921875 751.628906 144.28125 C 761.15625 142.476562 770.722656 140.832031 780.324219 139.449219 C 786.621094 138.535156 793.011719 138.203125 799.371094 137.640625 C 807.566406 136.917969 815.773438 136.808594 823.929688 138.121094 C 833.566406 139.667969 841.785156 143.898438 848.402344 151.140625 C 854.46875 157.777344 858.109375 165.78125 861.285156 174.03125 C 861.738281 175.207031 861.851562 176.507812 862.117188 177.753906 C 862.238281 178.332031 862.34375 178.914062 862.457031 179.5 C 863.144531 176.800781 863.585938 174.125 863.984375 171.449219 C 865.113281 163.996094 864.109375 156.871094 860.625 150.140625 C 857.210938 143.523438 851.988281 138.511719 846.148438 134.09375 C 837.949219 127.894531 828.386719 125.699219 818.386719 125.152344 C 816.152344 125.027344 813.925781 124.96875 811.699219 124.96875 C 802.820312 124.96875 793.992188 125.917969 785.269531 127.632812 " fill-opacity="1" fill-rule="nonzero"/><g clip-path="url(#d5fb3c9115)"><g clip-path="url(#69c9144e41)"><path fill="#000000" d="M 823.160156 25.804688 L 884.679688 171.21875 L 630.722656 278.664062 L 569.199219 133.246094 Z M 823.160156 25.804688 " fill-opacity="1" fill-rule="nonzero"/></g></g><path fill="#000000" d="M 849.800781 171.652344 C 847.644531 171.761719 845.472656 171.683594 843.308594 171.683594 C 840.746094 171.683594 840.703125 171.664062 839.75 174.058594 C 832.960938 191.089844 826.105469 208.09375 819.4375 225.175781 C 813.625 240.085938 808.023438 255.089844 802.34375 270.050781 C 802.082031 270.75 801.90625 271.492188 801.597656 272.492188 C 804.101562 272.492188 806.355469 272.496094 808.613281 272.492188 C 811.171875 272.484375 810.621094 272.585938 811.410156 270.523438 C 815.128906 260.746094 818.8125 250.945312 822.527344 241.09375 L 868.78125 241.09375 C 869.011719 241.683594 869.214844 242.191406 869.410156 242.710938 C 872.859375 252.058594 876.335938 261.40625 879.742188 270.777344 C 880.21875 272.101562 880.785156 272.722656 882.3125 272.625 C 884.574219 272.472656 886.855469 272.609375 889.136719 272.617188 C 889.433594 272.617188 889.726562 272.535156 890.136719 272.480469 C 889.863281 271.707031 889.65625 271.074219 889.421875 270.464844 C 881.734375 250.457031 874.042969 230.445312 866.359375 210.4375 C 861.59375 198.027344 856.808594 185.621094 852.089844 173.191406 C 851.667969 172.101562 851.136719 171.644531 850.035156 171.644531 C 849.960938 171.644531 849.878906 171.644531 849.800781 171.652344 M 845.378906 180.375 C 845.5625 180.359375 845.75 180.339844 845.9375 180.324219 C 852.425781 197.675781 858.914062 215.03125 865.484375 232.578125 L 825.871094 232.578125 C 832.414062 215.074219 838.898438 197.726562 845.378906 180.375 " fill-opacity="1" fill-rule="nonzero"/><g clip-path="url(#7ea1f6cce1)"><g clip-path="url(#305efea72f)"><path fill="#000000" d="M 876.695312 139.871094 L 926.40625 257.378906 L 815.039062 304.496094 L 765.324219 186.992188 Z M 876.695312 139.871094 " fill-opacity="1" fill-rule="nonzero"/></g></g><path fill="#000000" d="M 282.632812 173.347656 C 270.613281 204.03125 258.539062 234.695312 246.480469 265.363281 C 245.550781 267.71875 244.640625 270.085938 243.648438 272.625 C 246.519531 272.625 249.179688 272.574219 251.835938 272.648438 C 253.019531 272.6875 253.59375 272.3125 254.011719 271.167969 C 256.296875 264.871094 258.675781 258.601562 261.035156 252.328125 C 262.457031 248.554688 263.902344 244.78125 265.328125 241.050781 L 311.550781 241.050781 C 313.261719 245.675781 314.96875 250.292969 316.675781 254.90625 C 318.671875 260.3125 320.65625 265.714844 322.671875 271.113281 C 322.902344 271.730469 322.910156 272.582031 323.960938 272.574219 C 326.828125 272.546875 329.703125 272.5625 332.902344 272.5625 C 332.535156 271.570312 332.335938 271.011719 332.125 270.460938 C 326.988281 257.0625 321.851562 243.671875 316.710938 230.28125 C 309.40625 211.253906 302.089844 192.234375 294.820312 173.195312 C 294.402344 172.097656 293.886719 171.652344 292.675781 171.695312 C 290.125 171.792969 287.5625 171.816406 285.019531 171.6875 C 284.941406 171.683594 284.867188 171.683594 284.796875 171.683594 C 283.601562 171.683594 283.085938 172.1875 282.632812 173.347656 M 288.101562 180.484375 C 288.269531 180.453125 288.445312 180.421875 288.609375 180.390625 C 290.972656 186.039062 292.964844 191.835938 295.132812 197.5625 C 297.328125 203.359375 299.484375 209.175781 301.660156 214.984375 C 303.824219 220.785156 305.992188 226.582031 308.210938 232.535156 L 268.644531 232.535156 C 275.164062 215.101562 281.632812 197.792969 288.101562 180.484375 " fill-opacity="1" fill-rule="nonzero"/><g clip-path="url(#29d71ffb79)"><g clip-path="url(#2e7344962b)"><path fill="#000000" d="M 319.351562 139.625 L 369.15625 257.351562 L 257.199219 304.714844 L 207.394531 186.992188 Z M 319.351562 139.625 " fill-opacity="1" fill-rule="nonzero"/></g></g><path fill="#000000" d="M 451.589844 171.691406 C 449.046875 171.804688 446.480469 171.804688 443.933594 171.691406 C 442.652344 171.636719 442.089844 172.117188 441.648438 173.257812 C 428.910156 205.734375 416.140625 238.203125 403.382812 270.675781 C 403.195312 271.15625 403.050781 271.660156 402.824219 272.359375 C 405.75 272.359375 408.414062 272.308594 411.058594 272.382812 C 412.128906 272.414062 412.625 272.054688 412.984375 271.0625 C 414.835938 266.019531 416.757812 261 418.65625 255.980469 C 420.535156 251.007812 422.417969 246.042969 424.308594 241.054688 L 470.539062 241.054688 C 471.125 242.644531 471.703125 244.199219 472.277344 245.757812 C 475.40625 254.226562 478.546875 262.6875 481.636719 271.164062 C 482.015625 272.1875 482.476562 272.777344 483.648438 272.597656 C 484.246094 272.507812 484.875 272.582031 485.480469 272.582031 L 491.835938 272.582031 C 491.519531 271.640625 491.359375 271.070312 491.144531 270.523438 C 483.851562 251.496094 476.554688 232.472656 469.253906 213.449219 C 464.113281 200.054688 458.964844 186.671875 453.863281 173.265625 C 453.449219 172.175781 452.933594 171.6875 451.789062 171.6875 C 451.726562 171.6875 451.65625 171.691406 451.589844 171.691406 M 447.136719 180.359375 C 447.320312 180.347656 447.507812 180.339844 447.695312 180.335938 C 454.191406 197.707031 460.683594 215.078125 467.21875 232.566406 L 427.632812 232.566406 C 434.164062 215.09375 440.652344 197.722656 447.136719 180.359375 " fill-opacity="1" fill-rule="nonzero"/><g clip-path="url(#634eb0b2ba)"><g clip-path="url(#062463a5c4)"><path fill="#000000" d="M 478.324219 139.695312 L 528.132812 257.421875 L 416.339844 304.71875 L 366.53125 186.992188 Z M 478.324219 139.695312 " fill-opacity="1" fill-rule="nonzero"/></g></g><path fill="#000000" d="M 397.640625 173.246094 C 389.078125 198.699219 380.480469 224.140625 371.886719 249.585938 C 370.652344 253.242188 369.390625 256.894531 368.136719 260.546875 L 367.695312 260.601562 C 367.496094 260.117188 367.265625 259.636719 367.097656 259.136719 C 357.675781 231.464844 348.269531 203.78125 338.839844 176.109375 C 338.363281 174.707031 338.148438 172.816406 337.132812 172.105469 C 336.40625 171.597656 335.261719 171.679688 334.121094 171.761719 C 333.65625 171.796875 333.195312 171.828125 332.765625 171.820312 C 331.132812 171.796875 329.5 171.816406 327.644531 171.816406 C 328.117188 173.34375 328.457031 174.554688 328.867188 175.746094 C 337.035156 199.289062 345.203125 222.828125 353.382812 246.371094 C 356.21875 254.527344 359.105469 262.671875 361.90625 270.84375 C 362.335938 272.09375 362.925781 272.636719 364.285156 272.523438 C 365.101562 272.457031 365.917969 272.496094 366.734375 272.535156 C 367.25 272.558594 367.765625 272.578125 368.28125 272.574219 C 368.6875 272.574219 369.132812 272.605469 369.566406 272.644531 C 370.675781 272.726562 371.789062 272.816406 372.484375 272.316406 C 373.527344 271.574219 373.871094 269.769531 374.355469 268.367188 C 384.757812 238.335938 395.136719 208.289062 405.503906 178.242188 C 406.222656 176.171875 406.800781 174.054688 407.515625 171.722656 C 404.710938 171.722656 402.21875 171.800781 399.734375 171.695312 C 399.671875 171.691406 399.605469 171.691406 399.546875 171.691406 C 398.441406 171.691406 397.996094 172.1875 397.640625 173.246094 " fill-opacity="1" fill-rule="nonzero"/><g clip-path="url(#272c07a948)"><g clip-path="url(#5575bc7141)"><path fill="#000000" d="M 395.390625 142.9375 L 443.835938 257.449219 L 339.769531 301.476562 L 291.320312 186.964844 Z M 395.390625 142.9375 " fill-opacity="1" fill-rule="nonzero"/></g></g><path fill="#000000" d="M 486.101562 90.753906 C 484.726562 93.921875 485.714844 97.277344 488.78125 99.109375 C 490.441406 100.105469 491.089844 101.394531 490.890625 103.230469 C 490.777344 104.226562 490.695312 105.21875 490.570312 106.210938 C 489.511719 114.75 485.640625 121.640625 478.488281 126.550781 C 477.613281 127.148438 476.519531 127.410156 475.519531 127.832031 C 474.507812 126.003906 474.132812 124.328125 474.546875 122.503906 C 475.335938 119.03125 476.996094 116.117188 479.871094 113.941406 C 480.878906 113.179688 481.832031 112.351562 482.992188 111.402344 C 480.742188 109.867188 478.597656 109.160156 476.191406 109.074219 C 472.957031 108.957031 469.949219 109.929688 466.921875 110.824219 C 465.9375 111.113281 465.386719 110.933594 464.640625 110.210938 C 458.800781 104.566406 452.054688 100.441406 444.132812 98.382812 C 442.816406 98.039062 441.539062 97.976562 440.140625 98.820312 C 440.578125 99.335938 440.941406 99.796875 441.328125 100.230469 C 444.042969 103.234375 446.664062 106.328125 449.496094 109.21875 C 455.132812 114.972656 459.296875 121.636719 462.289062 129.074219 C 464.390625 134.3125 466.523438 139.546875 468.582031 144.800781 C 468.988281 145.828125 469.449219 146.351562 470.632812 146.148438 C 472.382812 145.851562 474.164062 145.761719 475.90625 145.449219 C 492.878906 142.382812 505.660156 133.375 514.214844 118.402344 C 514.410156 118.050781 514.515625 117.652344 514.738281 117.085938 C 511.222656 117.988281 508.433594 116.84375 505.878906 114.859375 C 500.90625 110.988281 497.863281 105.75 495.429688 100.089844 C 495.253906 99.6875 495.566406 98.976562 495.828125 98.507812 C 496.367188 97.550781 497.175781 96.722656 497.613281 95.734375 C 499.039062 92.480469 497.429688 88.859375 494 87.40625 C 493.164062 87.046875 492.324219 86.875 491.511719 86.875 C 489.214844 86.875 487.171875 88.265625 486.101562 90.753906 " fill-opacity="1" fill-rule="nonzero"/><g clip-path="url(#9bf49c6a74)"><g clip-path="url(#8b3c64d73e)"><path fill="#000000" d="M 503.410156 60.101562 L 536.082031 137.320312 L 451.464844 173.121094 L 418.792969 95.902344 Z M 503.410156 60.101562 " fill-opacity="1" fill-rule="nonzero"/></g></g></svg>